<?xml version="1.0" standalone="no"?>
<!DOCTYPE svg PUBLIC "-//W3C//DTD SVG 20010904//EN"
 "http://www.w3.org/TR/2001/REC-SVG-20010904/DTD/svg10.dtd">
<svg version="1.0" xmlns="http://www.w3.org/2000/svg"
 width="1920.000000pt" height="1080.000000pt" viewBox="0 0 1920.000000 1080.000000"
 preserveAspectRatio="xMidYMid meet">

<g transform="translate(0.000000,1080.000000) scale(0.100000,-0.100000)"
fill="#000000" stroke="none">
<path d="M9364 10169 c-396 -18 -852 -101 -1199 -217 -104 -36 -113 -40 -70
-37 28 3 127 7 220 10 192 7 260 18 425 68 215 65 348 60 585 -25 207 -74 227
-87 305 -202 26 -39 68 -91 93 -115 43 -42 48 -44 92 -39 31 4 59 16 83 35 20
16 78 57 127 90 105 71 132 97 145 144 13 43 4 86 -32 171 -15 37 -28 73 -28
81 0 10 -18 16 -59 21 -60 7 -461 26 -496 24 -11 0 -97 -5 -191 -9z"/>
<path d="M10998 9910 c-64 -11 -459 -145 -533 -181 -90 -43 -258 -169 -365
-274 -58 -56 -107 -96 -125 -101 -21 -5 -62 1 -132 19 -115 31 -206 34 -438
17 -282 -21 -315 -27 -507 -89 -252 -82 -276 -86 -477 -75 -91 5 -362 9 -601
9 -400 1 -446 3 -570 23 -155 26 -286 58 -316 77 -19 12 -31 6 -142 -75 -392
-286 -743 -633 -1027 -1015 -529 -713 -848 -1555 -926 -2450 -19 -211 -16
-667 5 -860 113 -1041 519 -1961 1203 -2728 1004 -1124 2529 -1715 4027 -1561
1176 121 2259 664 3049 1529 677 741 1099 1663 1222 2665 56 459 38 987 -51
1442 -187 967 -634 1809 -1329 2503 -88 89 -207 200 -265 249 l-105 87 -70 -8
c-181 -21 -474 11 -701 76 -146 42 -198 72 -231 135 -22 42 -10 92 47 205 30
58 50 110 50 130 0 32 -3 34 -112 85 -62 29 -180 79 -263 111 -159 62 -220 73
-317 55z m-887 -738 c111 -59 364 -272 422 -355 37 -55 35 -88 -8 -130 -60
-59 -182 -81 -421 -75 -218 4 -202 -12 -259 255 l-26 123 31 59 c32 59 84 107
152 136 45 19 48 19 109 -13z m-3001 -403 c114 -11 198 -35 213 -60 8 -13 6
-24 -6 -43 -68 -103 -487 -151 -623 -71 -67 39 -54 85 38 131 99 50 200 62
378 43z m5092 -160 c68 -15 143 -53 163 -83 33 -50 -8 -80 -137 -101 -138 -22
-258 -20 -318 6 -56 24 -67 46 -46 88 40 76 200 119 338 90z m-5195 -1894 c60
-18 111 -65 143 -131 18 -38 24 -69 26 -142 3 -91 4 -93 39 -129 45 -47 92
-143 111 -231 22 -98 29 -336 14 -477 -6 -66 -32 -239 -56 -385 -74 -438 -81
-659 -25 -769 18 -34 26 -41 52 -41 52 0 101 35 191 138 150 170 298 453 402
767 79 241 133 468 191 810 29 167 38 203 56 218 30 24 47 21 84 -16 56 -56
95 -223 95 -405 0 -137 -17 -301 -70 -672 -56 -398 -66 -510 -51 -599 30 -182
158 -134 269 101 62 129 106 254 228 638 114 361 160 489 225 628 113 242 224
351 355 352 39 0 55 -5 70 -21 17 -19 17 -23 3 -47 -12 -22 -23 -28 -66 -32
-72 -7 -126 -48 -190 -143 -89 -135 -163 -328 -343 -900 -133 -423 -203 -586
-296 -687 -182 -196 -423 -88 -491 220 -10 50 -16 128 -17 236 l-1 160 -33
-85 c-79 -204 -216 -443 -335 -582 -145 -171 -319 -258 -446 -225 -173 45
-250 251 -222 595 6 77 34 274 62 438 60 360 79 514 79 652 l0 104 -32 -49
c-73 -110 -187 -194 -266 -194 -44 0 -96 23 -118 52 l-18 25 -24 -28 c-28 -34
-78 -45 -126 -29 -44 14 -104 82 -112 126 l-6 33 -31 -20 c-36 -22 -113 -25
-137 -6 -52 40 -62 94 -30 157 22 44 56 71 134 105 l55 24 -16 31 c-13 27 -13
36 -1 68 18 47 62 76 159 106 74 23 81 28 171 119 93 95 144 129 215 146 56
13 74 13 130 -4z m4954 -1036 c86 -29 148 -115 134 -187 -10 -54 -39 -105 -81
-142 -48 -42 -90 -59 -164 -67 l-59 -6 -35 -66 c-76 -145 -96 -263 -54 -316
20 -26 25 -27 80 -22 116 10 311 132 493 308 51 49 99 89 108 89 10 0 17 13
22 39 11 64 61 158 117 218 58 62 152 113 206 113 79 0 142 -58 142 -131 0
-58 -45 -133 -121 -202 l-69 -62 0 -108 0 -109 37 22 c56 33 214 154 247 189
45 47 106 39 106 -15 0 -32 -115 -135 -261 -234 l-126 -85 -6 -185 c-11 -319
-71 -476 -223 -581 -116 -80 -303 -103 -377 -47 -48 38 -71 100 -64 176 11
126 90 262 253 431 l104 109 0 56 c0 54 -1 56 -21 46 -26 -15 -69 11 -69 42 0
23 28 72 73 131 16 21 28 40 26 42 -2 2 -44 -33 -94 -77 -236 -209 -426 -295
-634 -286 -85 3 -103 7 -151 34 -98 55 -145 168 -122 292 l10 54 -27 -9 c-14
-4 -52 -8 -83 -8 -52 0 -60 3 -93 35 -22 21 -41 52 -48 78 -6 23 -14 42 -17
42 -4 0 -27 -47 -52 -105 -127 -287 -267 -441 -384 -422 -95 16 -156 100 -174
241 -5 44 -11 81 -13 82 -1 2 -27 -29 -57 -68 -106 -136 -242 -239 -337 -254
-130 -20 -218 124 -194 316 5 36 8 66 6 67 -1 2 -24 -30 -51 -69 -126 -185
-285 -289 -442 -288 -115 1 -188 41 -237 132 -25 45 -30 67 -33 143 -12 269
157 529 382 590 129 35 373 -1 412 -60 15 -23 15 -27 -1 -51 -15 -24 -20 -25
-63 -19 -26 5 -60 7 -75 6 -145 -8 -336 -295 -337 -503 0 -145 76 -153 205
-21 108 110 272 385 336 563 25 71 32 80 66 80 29 0 64 -53 93 -140 29 -85 31
-208 6 -400 -19 -140 -17 -200 5 -200 21 0 112 97 202 214 50 66 102 131 115
144 28 30 52 138 61 282 l6 105 32 3 c73 7 179 -144 203 -290 17 -96 7 -233
-25 -372 -13 -60 -22 -112 -19 -115 3 -3 17 8 31 24 93 112 188 301 299 600
25 66 52 130 60 143 16 24 58 30 71 10 4 -7 8 -94 8 -193 0 -205 7 -235 57
-235 30 0 102 32 113 50 3 5 15 10 25 10 12 0 31 23 58 73 135 245 330 377
483 326z"/>
<path d="M6853 6601 c-52 -24 -201 -165 -210 -199 -4 -16 3 -43 21 -79 14 -29
26 -68 26 -86 l0 -33 58 56 c86 82 168 122 260 128 l75 5 -7 59 c-15 144 -103
203 -223 149z"/>
<path d="M6909 6260 c-50 -26 -138 -125 -166 -187 -29 -64 -34 -127 -11 -150
47 -46 187 72 263 221 35 69 37 77 25 105 -10 25 -18 31 -44 31 -17 -1 -47 -9
-67 -20z"/>
<path d="M6613 6127 c-38 -13 -39 -14 -15 -45 l18 -24 16 41 c9 23 16 40 15
40 -1 -1 -17 -7 -34 -12z"/>
<path d="M12724 5495 c-8 -20 -17 -50 -20 -68 l-6 -32 21 25 c24 30 43 98 30
106 -5 3 -16 -11 -25 -31z"/>
<path d="M11927 5459 c-32 -34 -56 -63 -53 -66 18 -19 136 80 136 114 0 27
-26 11 -83 -48z"/>
<path d="M12284 4572 c-110 -129 -173 -248 -174 -328 0 -63 58 -102 111 -74
44 24 107 201 129 366 7 50 11 97 8 105 -2 7 -33 -21 -74 -69z"/>
</g>
</svg>
